<svg width="18" height="18" fill="none" xmlns="http://www.w3.org/2000/svg">
  <path fill-rule="evenodd" clip-rule="evenodd"
    d="M7 17.1h4c2.809 0 4.213 0 5.222-.662a3.968 3.968 0 001.104-1.084c.674-.99.674-2.37.674-5.127 0-2.758 0-4.137-.674-5.128a3.966 3.966 0 00-1.104-1.083c-.648-.425-1.46-.577-2.702-.632a1.265 1.265 0 01-1.22-1.012A1.858 1.858 0 0010.47.9H7.53c-.89 0-1.656.617-1.83 1.473a1.265 1.265 0 01-1.22 1.012c-1.242.055-2.054.207-2.702.632A3.964 3.964 0 00.674 5.099C0 6.09 0 7.47 0 10.227s0 4.136.674 5.127c.292.429.667.797 1.104 1.084 1.009.661 2.413.661 5.222.661zM9 6.544c-2.071 0-3.75 1.648-3.75 3.682 0 2.033 1.679 3.681 3.75 3.681 2.071 0 3.75-1.648 3.75-3.681 0-2.034-1.679-3.682-3.75-3.682zm0 1.473c-1.243 0-2.25.989-2.25 2.209 0 1.22 1.007 2.209 2.25 2.209s2.25-.99 2.25-2.21S10.243 8.019 9 8.019zm4.25-.737c0-.406.336-.736.75-.736h1c.414 0 .75.33.75.736a.743.743 0 01-.75.737h-1a.743.743 0 01-.75-.737z"
    fill="#1C274C" />
</svg>