<svg width="18" height="18" viewBox="0 0 18 18" fill="none" xmlns="http://www.w3.org/2000/svg">
<mask id="mask0_545_15" style="mask-type:alpha" maskUnits="userSpaceOnUse" x="0" y="0" width="18" height="18">
<circle cx="9" cy="9" r="7.5" fill="white" stroke="black" stroke-width="3"/>
</mask>
<g mask="url(#mask0_545_15)">
<circle cx="9" cy="9" r="8.25" fill="white" stroke="black" stroke-width="1.5"/>
<rect x="7.5" y="7.5" width="3" height="3" fill="black"/>
<rect x="4.5" y="10.5" width="3" height="3" fill="black"/>
<rect x="1.5" y="7.5" width="3" height="3" fill="black"/>
<rect x="-1.5" y="4.5" width="3" height="3" fill="black"/>
<rect x="-1.5" y="10.5" width="3" height="3" fill="black"/>
<rect x="4.5" y="4.5" width="3" height="3" fill="black"/>
<rect x="7.5" y="1.5" width="3" height="3" fill="black"/>
<rect x="1.5" y="1.5" width="3" height="3" fill="black"/>
<rect x="4.5" y="-1.5" width="3" height="3" fill="black"/>
<rect x="10.5" y="-1.5" width="3" height="3" fill="black"/>
<rect x="1.5" y="13.5" width="3" height="3" fill="black"/>
<rect x="4.5" y="16.5" width="3" height="3" fill="black"/>
<rect x="10.5" y="10.5" width="3" height="3" fill="black"/>
<rect x="13.5" y="7.5" width="3" height="3" fill="black"/>
<rect x="10.5" y="4.5" width="3" height="3" fill="black"/>
<rect x="13.5" y="1.5" width="3" height="3" fill="black"/>
<rect x="16.5" y="4.5" width="3" height="3" fill="black"/>
<rect x="16.5" y="10.5" width="3" height="3" fill="black"/>
<rect x="13.5" y="13.5" width="3" height="3" fill="black"/>
<rect x="7.5" y="13.5" width="3" height="3" fill="black"/>
<rect x="10.5" y="16.5" width="3" height="3" fill="black"/>
</g>
</svg>
