<svg width="24" height="24" fill="none" xmlns="http://www.w3.org/2000/svg">
  <circle cx="12" cy="12" r="12" fill="#67DDD3" />
  <g clip-path="url(#prefix__clip0_673_17)">
    <path fill-rule="evenodd" clip-rule="evenodd"
      d="M10 19.1h4c2.809 0 4.213 0 5.222-.662a3.968 3.968 0 001.104-1.084c.674-.99.674-2.37.674-5.127 0-2.758 0-4.137-.674-5.128a3.966 3.966 0 00-1.104-1.083c-.648-.425-1.46-.577-2.702-.632a1.265 1.265 0 01-1.22-1.012A1.858 1.858 0 0013.47 2.9h-2.94c-.89 0-1.656.617-1.83 1.473a1.265 1.265 0 01-1.22 1.012c-1.242.055-2.054.207-2.702.632a3.964 3.964 0 00-1.104 1.083C3 8.09 3 9.47 3 12.227s0 4.136.674 5.127c.292.429.667.797 1.104 1.084 1.009.661 2.413.661 5.222.661zm2-10.555c-2.071 0-3.75 1.648-3.75 3.682 0 2.033 1.679 3.681 3.75 3.681 2.071 0 3.75-1.648 3.75-3.681 0-2.034-1.679-3.682-3.75-3.682zm0 1.473c-1.243 0-2.25.989-2.25 2.209 0 1.22 1.007 2.209 2.25 2.209s2.25-.99 2.25-2.21-1.007-2.208-2.25-2.208zm4.25-.737c0-.406.336-.736.75-.736h1c.414 0 .75.33.75.736a.743.743 0 01-.75.737h-1a.743.743 0 01-.75-.737z"
      fill="#1C274C" />
  </g>
  <defs>
    <clipPath id="prefix__clip0_673_17">
      <path fill="#fff" transform="translate(3 2)" d="M0 0h18v18H0z" />
    </clipPath>
  </defs>
</svg>