<svg width="36" height="36" viewBox="0 0 36 36" fill="none" xmlns="http://www.w3.org/2000/svg">
<mask id="mask0_545_15" style="mask-type:alpha" maskUnits="userSpaceOnUse" x="0" y="0" width="36" height="36">
<circle cx="18" cy="18" r="16.5" fill="white" stroke="black" stroke-width="3"/>
</mask>
<g mask="url(#mask0_545_15)">
<circle cx="18" cy="18" r="16.5" fill="white" stroke="black" stroke-width="3"/>
<line x1="3" y1="18" x2="9" y2="18" stroke="black" stroke-width="6"/>
<line x1="9" y1="12" x2="15" y2="12" stroke="black" stroke-width="6"/>
<line x1="9" y1="24" x2="15" y2="24" stroke="black" stroke-width="6"/>
<line x1="15" y1="18" x2="21" y2="18" stroke="black" stroke-width="6"/>
<line x1="15" y1="30" x2="21" y2="30" stroke="black" stroke-width="6"/>
<line x1="27" y1="30" x2="33" y2="30" stroke="black" stroke-width="6"/>
<line x1="27" y1="18" x2="33" y2="18" stroke="black" stroke-width="6"/>
<line x1="27" y1="6" x2="33" y2="6" stroke="black" stroke-width="6"/>
<line x1="3" y1="30" x2="9" y2="30" stroke="black" stroke-width="6"/>
<line x1="21" y1="24" x2="27" y2="24" stroke="black" stroke-width="6"/>
<line x1="21" y1="12" x2="27" y2="12" stroke="black" stroke-width="6"/>
<line x1="15" y1="6" x2="21" y2="6" stroke="black" stroke-width="6"/>
<line x1="3" y1="6" x2="9" y2="6" stroke="black" stroke-width="6"/>
</g>
</svg>
